<svg width="28" height="28" viewBox="0 0 128 128" fill="none" xmlns="http://www.w3.org/2000/svg">
<path d="M63.5004 24C41.6844 24 24 41.684 24 63.4996C24 85.3152 41.6844 103 63.5004 103C85.3164 103 103 85.3152 103 63.4996C103 41.684 85.3164 24 63.5004 24ZM70.3922 86.8581C70.3922 90.3993 67.3304 93.2687 63.5543 93.2687C59.7782 93.2687 56.7164 90.3993 56.7164 86.8581V57.4462C56.7164 53.9059 59.7782 51.0356 63.5543 51.0356C67.3304 51.0356 70.3922 53.9059 70.3922 57.4462V86.8581ZM63.5004 48.3922C59.4395 48.3922 56.1469 45.1005 56.1469 41.038C56.1469 36.9764 59.4387 33.6846 63.5004 33.6846C67.5629 33.6846 70.8547 36.9764 70.8547 41.038C70.8539 45.1005 67.5621 48.3922 63.5004 48.3922Z" fill="#FAFAFF"/>
</svg>
